# This file uses centimeters as units for non-parametric coordinates.

mtllib watermelon_slice_lowpoly02.mtl
g default
v 55.456882 10.205641 11.075279
v 33.984943 3.673506 11.075279
v 32.790379 7.882917 11.075279
v 53.595890 14.212416 11.075279
v 11.565236 0.481031 11.075279
v 11.066487 4.789564 11.075279
v -11.250182 0.706892 11.075279
v -11.040839 5.008467 11.075279
v -33.899563 4.345442 11.075272
v -32.987309 8.534040 11.075279
v -55.825188 11.307081 11.075272
v -54.232403 15.279676 11.075272
v 31.122051 13.762068 11.075279
v 50.997028 19.808012 11.075279
v 10.369992 10.806807 11.075272
v -10.748553 11.015760 11.075279
v -31.713215 14.383650 11.075272
v -52.008060 20.827513 11.075272
v 55.456867 10.205671 -10.884987
v 33.984921 3.673506 -10.884987
v 32.790371 7.882917 -10.884995
v 53.595882 14.212416 -10.884987
v 11.565221 0.481031 -10.884987
v 11.066487 4.789564 -10.884995
v -11.250182 0.706892 -10.884987
v -11.040835 5.008467 -10.884995
v -33.899563 4.345442 -10.884995
v -32.987301 8.534040 -10.884995
v -55.825188 11.307081 -10.884995
v -54.232403 15.279676 -10.884995
v 31.122059 13.762068 -10.884995
v 50.997028 19.808012 -10.884987
v 10.369996 10.806807 -10.884995
v -10.748549 11.015760 -10.884995
v -31.713215 14.383650 -10.884995
v -52.008053 20.827513 -10.884995
v -5.777302 135.922455 11.075272
v -5.777295 135.922455 -10.884995
v -2.909486 136.109482 11.075272
v -2.909478 136.109482 -10.884995
v -3.490685 136.488846 11.075272
v -3.490678 136.488846 -10.884995
v -4.104752 136.574280 11.075272
v -4.104744 136.574280 -10.884995
v -4.737910 136.529755 11.075272
v -4.737903 136.529755 -10.884995
v -5.323251 136.371094 11.075272
v -5.323244 136.371094 -10.884995
vt 0.835304 0.048202
vt 0.705176 0.048202
vt 0.838531 0.277647
vt 0.851692 0.187536
vt 0.705176 0.149922
vt 0.707157 0.244968
vt 0.835304 0.149922
vt 0.699849 0.266027
vt 0.569304 0.048202
vt 0.827145 0.297693
vt 0.569304 0.149922
vt 0.001421 0.159386
vt 0.569985 0.228996
vt 0.851692 0.165867
vt 0.566934 0.250551
vt 0.430392 0.230126
vt 0.431673 0.251646
vt 0.001421 0.181091
vt 0.140909 0.181091
vt 0.291815 0.248329
vt 0.297396 0.269284
vt 0.157666 0.283158
vt 0.167411 0.303033
vt 0.689641 0.295440
vt 0.986661 0.165868
vt 0.811244 0.325687
vt 0.562673 0.280655
vt 0.433461 0.281700
vt 0.140909 0.159386
vt 0.305192 0.298550
vt 0.181020 0.330788
vt 0.838531 0.277647
vt 0.827145 0.297693
vt 0.699849 0.266027
vt 0.707158 0.244968
vt 0.566934 0.250551
vt 0.569986 0.228996
vt 0.431034 0.048202
vt 0.431034 0.149922
vt 0.986661 0.187536
vt 0.293770 0.048202
vt 0.293770 0.149922
vt 0.160893 0.048202
vt 0.160893 0.149922
vt 0.001421 0.211403
vt 0.851692 0.217795
vt 0.140909 0.211403
vt 0.431673 0.251646
vt 0.430392 0.230126
vt 0.297396 0.269284
vt 0.291815 0.248329
vt 0.986661 0.217795
vt 0.167411 0.303033
vt 0.157666 0.283158
vt 0.811244 0.325687
vt 0.689641 0.295440
vt 0.001421 0.840251
vt 0.140909 0.840251
vt 0.986661 0.846733
vt 0.851692 0.846733
vt 0.673751 0.853224
vt 0.673751 0.702730
vt 0.676710 0.702730
vt 0.676710 0.853224
vt 0.688654 0.853224
vt 0.688654 0.702730
vt 0.692442 0.702730
vt 0.692442 0.853224
vt 0.562672 0.280655
vt 0.433461 0.281700
vt 0.305192 0.298550
vt 0.181020 0.330788
vt 0.477868 0.909434
vt 0.481424 0.907536
vt 0.474111 0.909861
vt 0.470237 0.909639
vt 0.466655 0.908845
vt 0.463877 0.906600
vt 0.466655 0.908845
vt 0.463877 0.906600
vt 0.470237 0.909639
vt 0.474111 0.909861
vt 0.477868 0.909434
vt 0.481424 0.907536
vt 0.684652 0.853224
vt 0.684652 0.702730
vt 0.680525 0.853224
vt 0.680525 0.702730
vn 0.000000 -0.000001 -1.000000
vn 0.000000 -0.000001 -1.000000
vn 0.000000 -0.000001 -1.000000
vn 0.000000 -0.000000 -1.000000
vn 0.000000 -0.000002 -1.000000
vn 0.000000 -0.000001 -1.000000
vn 0.000000 -0.000001 -1.000000
vn 0.000000 -0.000001 -1.000000
vn 0.000000 -0.000000 -1.000000
vn 0.000000 -0.000000 -1.000000
vn 0.000000 0.000000 -1.000000
vn 0.000000 0.000000 -1.000000
vn 0.000000 0.000000 -1.000000
vn 0.000000 0.000000 -1.000000
vn 0.000000 0.000000 -1.000000
vn 0.000000 0.000000 -1.000000
vn 0.000000 0.000000 -1.000000
vn 0.000000 0.000000 -1.000000
vn -0.000000 0.000000 1.000000
vn -0.000000 0.000000 1.000000
vn -0.000000 0.000000 1.000000
vn -0.000000 0.000000 1.000000
vn -0.000000 0.000000 1.000000
vn -0.000000 0.000000 1.000000
vn -0.000000 0.000000 1.000000
vn -0.000000 -0.000000 1.000000
vn -0.000000 -0.000000 1.000000
vn -0.000000 -0.000001 1.000000
vn -0.000000 0.000000 1.000000
vn -0.000000 -0.000001 1.000000
vn 0.000000 0.000000 1.000000
vn -0.000000 0.000000 1.000000
vn -0.000000 0.000001 1.000000
vn 0.000000 0.000001 1.000000
vn -0.000000 0.000001 1.000000
vn 0.000000 0.000001 1.000000
vn 0.291048 -0.956708 -0.000001
vn 0.216314 -0.976324 -0.000001
vn 0.216314 -0.976324 -0.000001
vn 0.291048 -0.956709 -0.000001
vn 0.906951 0.421236 -0.000000
vn 0.906948 0.421243 -0.000000
vn 0.906948 0.421243 -0.000000
vn 0.906951 0.421237 -0.000000
vn 0.065442 -0.997856 -0.000000
vn 0.065441 -0.997856 -0.000000
vn -0.084692 -0.996407 0.000000
vn -0.084692 -0.996407 0.000000
vn -0.231354 -0.972870 0.000000
vn -0.231354 -0.972870 0.000000
vn -0.302623 -0.953110 0.000000
vn -0.302623 -0.953110 0.000000
vn -0.928174 0.372146 0.000000
vn -0.928175 0.372144 -0.000000
vn -0.928175 0.372144 -0.000000
vn -0.928174 0.372146 0.000000
vn 0.907264 0.420562 0.000000
vn 0.907264 0.420562 0.000000
vn -0.927951 0.372703 -0.000000
vn -0.927951 0.372703 -0.000000
vn -0.927940 0.372730 -0.000000
vn -0.927940 0.372730 -0.000000
vn 0.907279 0.420530 0.000000
vn 0.907279 0.420530 0.000000
vn -0.702855 0.711334 -0.000000
vn -0.702855 0.711334 -0.000000
vn -0.504483 0.863422 -0.000000
vn -0.504483 0.863422 -0.000000
vn 0.362427 0.932012 0.000000
vn 0.362427 0.932012 0.000000
vn 0.546592 0.837399 0.000001
vn 0.546592 0.837399 0.000001
vn 0.032782 0.999463 0.000000
vn 0.032782 0.999463 0.000000
vn -0.164480 0.986380 0.000000
vn -0.164480 0.986380 0.000000
vn 0.000000 0.000000 -1.000000
vn 0.000000 0.000000 -1.000000
vn 0.000000 0.000000 -1.000000
vn 0.000000 0.000000 -1.000000
vn 0.000000 0.000000 -1.000000
vn 0.000000 0.000000 -1.000000
vn 0.000000 0.000000 -1.000000
vn 0.000000 0.000000 -1.000000
vn -0.000000 0.000000 -1.000000
vn -0.000000 0.000000 -1.000000
vn -0.000000 0.000000 -1.000000
vn -0.000000 0.000000 -1.000000
vn 0.000000 0.000000 -1.000000
vn 0.000000 0.000000 -1.000000
vn 0.000000 0.000000 -1.000000
vn 0.000000 0.000000 -1.000000
vn -0.000000 0.000000 -1.000000
vn -0.000000 0.000000 -1.000000
vn -0.000000 0.000000 -1.000000
vn -0.000000 0.000000 -1.000000
vn 0.000000 0.000000 1.000000
vn 0.000000 0.000000 1.000000
vn 0.000000 0.000000 1.000000
vn 0.000000 0.000000 1.000000
vn -0.000000 0.000000 1.000000
vn -0.000000 0.000000 1.000000
vn -0.000000 0.000000 1.000000
vn -0.000000 0.000000 1.000000
vn 0.000000 0.000000 1.000000
vn 0.000000 0.000000 1.000000
vn 0.000000 0.000000 1.000000
vn 0.000000 0.000000 1.000000
vn -0.000000 -0.000000 1.000000
vn -0.000000 -0.000000 1.000000
vn -0.000000 -0.000000 1.000000
vn -0.000000 -0.000000 1.000000
vn -0.000000 0.000000 1.000000
vn -0.000000 0.000000 1.000000
vn -0.000000 0.000000 1.000000
vn -0.000000 0.000000 1.000000
s 1
g polySurface2 pSphere1
usemtl initialShadingGroup
f 19/3/1 20/6/2 21/8/3 22/10/4
f 20/6/2 23/13/5 24/15/6 21/8/3
f 23/13/5 25/16/7 26/17/8 24/15/6
f 25/16/7 27/20/9 28/21/10 26/17/8
f 27/20/9 29/22/11 30/23/12 28/21/10
f 22/10/4 21/8/3 31/24/13 32/26/14
f 21/8/3 24/15/6 33/27/15 31/24/13
f 24/15/6 26/17/8 34/28/16 33/27/15
f 26/17/8 28/21/10 35/30/17 34/28/16
f 28/21/10 30/23/12 36/31/18 35/30/17
s 2
f 1/32/19 4/33/20 3/34/21 2/35/22
f 2/35/22 3/34/21 6/36/23 5/37/24
f 5/37/24 6/36/23 8/48/25 7/49/26
f 7/49/26 8/48/25 10/50/27 9/51/28
f 9/51/28 10/50/27 12/53/29 11/54/30
f 4/33/20 14/55/31 13/56/32 3/34/21
f 3/34/21 13/56/32 15/69/33 6/36/23
f 6/36/23 15/69/33 16/70/34 8/48/25
f 8/48/25 16/70/34 17/71/35 10/50/27
f 10/50/27 17/71/35 18/72/36 12/53/29
s 3
f 1/1/37 2/2/38 20/5/39 19/7/40
s 4
f 4/4/41 1/14/42 19/25/43 22/40/44
s 3
f 2/2/38 5/9/45 23/11/46 20/5/39
f 5/9/45 7/38/47 25/39/48 23/11/46
f 7/38/47 9/41/49 27/42/50 25/39/48
f 9/41/49 11/43/51 29/44/52 27/42/50
s 5
f 11/12/53 12/18/54 30/19/55 29/29/56
s 4
f 14/46/57 4/4/41 22/40/44 32/52/58
s 5
f 12/18/54 18/45/59 36/47/60 30/19/55
f 18/45/59 37/57/61 38/58/62 36/47/60
s 4
f 40/59/63 39/60/64 14/46/57 32/52/58
s 6
f 38/61/65 37/62/66 47/63/67 48/64/68
f 42/65/69 41/66/70 39/67/71 40/68/72
f 44/85/73 43/86/74 41/66/70 42/65/69
f 46/87/75 45/88/76 43/86/74 44/85/73
f 48/64/68 47/63/67 45/88/76 46/87/75
s off
f 32/26/77 31/24/78 42/73/79 40/74/80
f 31/24/81 33/27/82 44/75/83 42/73/84
f 33/27/85 34/28/86 46/76/87 44/75/88
f 34/28/89 35/30/90 48/77/91 46/76/92
f 35/30/93 36/31/94 38/78/95 48/77/96
f 18/72/97 17/71/98 47/79/99 37/80/100
f 17/71/101 16/70/102 45/81/103 47/79/104
f 16/70/105 15/69/106 43/82/107 45/81/108
f 15/69/109 13/56/110 41/83/111 43/82/112
f 13/56/113 14/55/114 39/84/115 41/83/116
g default
v 55.456882 10.205641 11.075279
v 33.984943 3.673506 11.075279
v 32.790379 7.882917 11.075279
v 53.595890 14.212416 11.075279
v 11.565236 0.481031 11.075279
v 11.066487 4.789564 11.075279
v -11.250182 0.706892 11.075279
v -11.040839 5.008467 11.075279
v -33.899563 4.345442 11.075272
v -32.987309 8.534040 11.075279
v -55.825188 11.307081 11.075272
v -54.232403 15.279676 11.075272
v 31.122051 13.762068 11.075279
v 50.997028 19.808012 11.075279
v 10.369992 10.806807 11.075272
v -10.748553 11.015760 11.075279
v -31.713215 14.383650 11.075272
v -52.008060 20.827513 11.075272
v 55.456867 10.205671 -10.884987
v 33.984921 3.673506 -10.884987
v 32.790371 7.882917 -10.884995
v 53.595882 14.212416 -10.884987
v 11.565221 0.481031 -10.884987
v 11.066487 4.789564 -10.884995
v -11.250182 0.706892 -10.884987
v -11.040835 5.008467 -10.884995
v -33.899563 4.345442 -10.884995
v -32.987301 8.534040 -10.884995
v -55.825188 11.307081 -10.884995
v -54.232403 15.279676 -10.884995
v 31.122059 13.762068 -10.884995
v 50.997028 19.808012 -10.884987
v 10.369996 10.806807 -10.884995
v -10.748549 11.015760 -10.884995
v -31.713215 14.383650 -10.884995
v -52.008053 20.827513 -10.884995
v -5.777302 135.922455 11.075272
v -5.777295 135.922455 -10.884995
v -2.909486 136.109482 11.075272
v -2.909478 136.109482 -10.884995
v -3.490685 136.488846 11.075272
v -3.490678 136.488846 -10.884995
v -4.104752 136.574280 11.075272
v -4.104744 136.574280 -10.884995
v -4.737910 136.529755 11.075272
v -4.737903 136.529755 -10.884995
v -5.323251 136.371094 11.075272
v -5.323244 136.371094 -10.884995
vt 0.835304 0.048202
vt 0.705176 0.048202
vt 0.838531 0.277647
vt 0.851692 0.187536
vt 0.705176 0.149922
vt 0.707157 0.244968
vt 0.835304 0.149922
vt 0.699849 0.266027
vt 0.569304 0.048202
vt 0.827145 0.297693
vt 0.569304 0.149922
vt 0.001421 0.159386
vt 0.569985 0.228996
vt 0.851692 0.165867
vt 0.566934 0.250551
vt 0.430392 0.230126
vt 0.431673 0.251646
vt 0.001421 0.181091
vt 0.140909 0.181091
vt 0.291815 0.248329
vt 0.297396 0.269284
vt 0.157666 0.283158
vt 0.167411 0.303033
vt 0.689641 0.295440
vt 0.986661 0.165868
vt 0.811244 0.325687
vt 0.562673 0.280655
vt 0.433461 0.281700
vt 0.140909 0.159386
vt 0.305192 0.298550
vt 0.181020 0.330788
vt 0.838531 0.277647
vt 0.827145 0.297693
vt 0.699849 0.266027
vt 0.707158 0.244968
vt 0.566934 0.250551
vt 0.569986 0.228996
vt 0.431034 0.048202
vt 0.431034 0.149922
vt 0.986661 0.187536
vt 0.293770 0.048202
vt 0.293770 0.149922
vt 0.160893 0.048202
vt 0.160893 0.149922
vt 0.001421 0.211403
vt 0.851692 0.217795
vt 0.140909 0.211403
vt 0.431673 0.251646
vt 0.430392 0.230126
vt 0.297396 0.269284
vt 0.291815 0.248329
vt 0.986661 0.217795
vt 0.167411 0.303033
vt 0.157666 0.283158
vt 0.811244 0.325687
vt 0.689641 0.295440
vt 0.001421 0.840251
vt 0.140909 0.840251
vt 0.986661 0.846733
vt 0.851692 0.846733
vt 0.673751 0.853224
vt 0.673751 0.702730
vt 0.676710 0.702730
vt 0.676710 0.853224
vt 0.688654 0.853224
vt 0.688654 0.702730
vt 0.692442 0.702730
vt 0.692442 0.853224
vt 0.562672 0.280655
vt 0.433461 0.281700
vt 0.305192 0.298550
vt 0.181020 0.330788
vt 0.477868 0.909434
vt 0.481424 0.907536
vt 0.474111 0.909861
vt 0.470237 0.909639
vt 0.466655 0.908845
vt 0.463877 0.906600
vt 0.466655 0.908845
vt 0.463877 0.906600
vt 0.470237 0.909639
vt 0.474111 0.909861
vt 0.477868 0.909434
vt 0.481424 0.907536
vt 0.684652 0.853224
vt 0.684652 0.702730
vt 0.680525 0.853224
vt 0.680525 0.702730
vn 0.000000 -0.000001 -1.000000
vn 0.000000 -0.000001 -1.000000
vn 0.000000 -0.000001 -1.000000
vn 0.000000 -0.000000 -1.000000
vn 0.000000 -0.000002 -1.000000
vn 0.000000 -0.000001 -1.000000
vn 0.000000 -0.000001 -1.000000
vn 0.000000 -0.000001 -1.000000
vn 0.000000 -0.000000 -1.000000
vn 0.000000 -0.000000 -1.000000
vn 0.000000 0.000000 -1.000000
vn 0.000000 0.000000 -1.000000
vn 0.000000 0.000000 -1.000000
vn 0.000000 0.000000 -1.000000
vn 0.000000 0.000000 -1.000000
vn 0.000000 0.000000 -1.000000
vn 0.000000 0.000000 -1.000000
vn 0.000000 0.000000 -1.000000
vn -0.000000 0.000000 1.000000
vn -0.000000 0.000000 1.000000
vn -0.000000 0.000000 1.000000
vn -0.000000 0.000000 1.000000
vn -0.000000 0.000000 1.000000
vn -0.000000 0.000000 1.000000
vn -0.000000 0.000000 1.000000
vn -0.000000 -0.000000 1.000000
vn -0.000000 -0.000000 1.000000
vn -0.000000 -0.000001 1.000000
vn -0.000000 0.000000 1.000000
vn -0.000000 -0.000001 1.000000
vn 0.000000 0.000000 1.000000
vn -0.000000 0.000000 1.000000
vn -0.000000 0.000001 1.000000
vn 0.000000 0.000001 1.000000
vn -0.000000 0.000001 1.000000
vn 0.000000 0.000001 1.000000
vn 0.291048 -0.956708 -0.000001
vn 0.216314 -0.976324 -0.000001
vn 0.216314 -0.976324 -0.000001
vn 0.291048 -0.956709 -0.000001
vn 0.906951 0.421236 -0.000000
vn 0.906948 0.421243 -0.000000
vn 0.906948 0.421243 -0.000000
vn 0.906951 0.421237 -0.000000
vn 0.065442 -0.997856 -0.000000
vn 0.065441 -0.997856 -0.000000
vn -0.084692 -0.996407 0.000000
vn -0.084692 -0.996407 0.000000
vn -0.231354 -0.972870 0.000000
vn -0.231354 -0.972870 0.000000
vn -0.302623 -0.953110 0.000000
vn -0.302623 -0.953110 0.000000
vn -0.928174 0.372146 0.000000
vn -0.928175 0.372144 -0.000000
vn -0.928175 0.372144 -0.000000
vn -0.928174 0.372146 0.000000
vn 0.907264 0.420562 0.000000
vn 0.907264 0.420562 0.000000
vn -0.927951 0.372703 -0.000000
vn -0.927951 0.372703 -0.000000
vn -0.927940 0.372730 -0.000000
vn -0.927940 0.372730 -0.000000
vn 0.907279 0.420530 0.000000
vn 0.907279 0.420530 0.000000
vn -0.702855 0.711334 -0.000000
vn -0.702855 0.711334 -0.000000
vn -0.504483 0.863422 -0.000000
vn -0.504483 0.863422 -0.000000
vn 0.362427 0.932012 0.000000
vn 0.362427 0.932012 0.000000
vn 0.546592 0.837399 0.000001
vn 0.546592 0.837399 0.000001
vn 0.032782 0.999463 0.000000
vn 0.032782 0.999463 0.000000
vn -0.164480 0.986380 0.000000
vn -0.164480 0.986380 0.000000
vn 0.000000 0.000000 -1.000000
vn 0.000000 0.000000 -1.000000
vn 0.000000 0.000000 -1.000000
vn 0.000000 0.000000 -1.000000
vn 0.000000 0.000000 -1.000000
vn 0.000000 0.000000 -1.000000
vn 0.000000 0.000000 -1.000000
vn 0.000000 0.000000 -1.000000
vn -0.000000 0.000000 -1.000000
vn -0.000000 0.000000 -1.000000
vn -0.000000 0.000000 -1.000000
vn -0.000000 0.000000 -1.000000
vn 0.000000 0.000000 -1.000000
vn 0.000000 0.000000 -1.000000
vn 0.000000 0.000000 -1.000000
vn 0.000000 0.000000 -1.000000
vn -0.000000 0.000000 -1.000000
vn -0.000000 0.000000 -1.000000
vn -0.000000 0.000000 -1.000000
vn -0.000000 0.000000 -1.000000
vn 0.000000 0.000000 1.000000
vn 0.000000 0.000000 1.000000
vn 0.000000 0.000000 1.000000
vn 0.000000 0.000000 1.000000
vn -0.000000 0.000000 1.000000
vn -0.000000 0.000000 1.000000
vn -0.000000 0.000000 1.000000
vn -0.000000 0.000000 1.000000
vn 0.000000 0.000000 1.000000
vn 0.000000 0.000000 1.000000
vn 0.000000 0.000000 1.000000
vn 0.000000 0.000000 1.000000
vn -0.000000 -0.000000 1.000000
vn -0.000000 -0.000000 1.000000
vn -0.000000 -0.000000 1.000000
vn -0.000000 -0.000000 1.000000
vn -0.000000 0.000000 1.000000
vn -0.000000 0.000000 1.000000
vn -0.000000 0.000000 1.000000
vn -0.000000 0.000000 1.000000
s 1
g polySurface2 pSphere1
f 67/91/117 68/94/118 69/96/119 70/98/120
f 68/94/118 71/101/121 72/103/122 69/96/119
f 71/101/121 73/104/123 74/105/124 72/103/122
f 73/104/123 75/108/125 76/109/126 74/105/124
f 75/108/125 77/110/127 78/111/128 76/109/126
f 70/98/120 69/96/119 79/112/129 80/114/130
f 69/96/119 72/103/122 81/115/131 79/112/129
f 72/103/122 74/105/124 82/116/132 81/115/131
f 74/105/124 76/109/126 83/118/133 82/116/132
f 76/109/126 78/111/128 84/119/134 83/118/133
s 2
f 49/120/135 52/121/136 51/122/137 50/123/138
f 50/123/138 51/122/137 54/124/139 53/125/140
f 53/125/140 54/124/139 56/136/141 55/137/142
f 55/137/142 56/136/141 58/138/143 57/139/144
f 57/139/144 58/138/143 60/141/145 59/142/146
f 52/121/136 62/143/147 61/144/148 51/122/137
f 51/122/137 61/144/148 63/157/149 54/124/139
f 54/124/139 63/157/149 64/158/150 56/136/141
f 56/136/141 64/158/150 65/159/151 58/138/143
f 58/138/143 65/159/151 66/160/152 60/141/145
s 3
f 49/89/153 50/90/154 68/93/155 67/95/156
s 4
f 52/92/157 49/102/158 67/113/159 70/128/160
s 3
f 50/90/154 53/97/161 71/99/162 68/93/155
f 53/97/161 55/126/163 73/127/164 71/99/162
f 55/126/163 57/129/165 75/130/166 73/127/164
f 57/129/165 59/131/167 77/132/168 75/130/166
s 5
f 59/100/169 60/106/170 78/107/171 77/117/172
s 4
f 62/134/173 52/92/157 70/128/160 80/140/174
s 5
f 60/106/170 66/133/175 84/135/176 78/107/171
f 66/133/175 85/145/177 86/146/178 84/135/176
s 4
f 88/147/179 87/148/180 62/134/173 80/140/174
s 6
f 86/149/181 85/150/182 95/151/183 96/152/184
f 90/153/185 89/154/186 87/155/187 88/156/188
f 92/173/189 91/174/190 89/154/186 90/153/185
f 94/175/191 93/176/192 91/174/190 92/173/189
f 96/152/184 95/151/183 93/176/192 94/175/191
s off
f 80/114/193 79/112/194 90/161/195 88/162/196
f 79/112/197 81/115/198 92/163/199 90/161/200
f 81/115/201 82/116/202 94/164/203 92/163/204
f 82/116/205 83/118/206 96/165/207 94/164/208
f 83/118/209 84/119/210 86/166/211 96/165/212
f 66/160/213 65/159/214 95/167/215 85/168/216
f 65/159/217 64/158/218 93/169/219 95/167/220
f 64/158/221 63/157/222 91/170/223 93/169/224
f 63/157/225 61/144/226 89/171/227 91/170/228
f 61/144/229 62/143/230 87/172/231 89/171/232
